Coordinates
version=1
nRows=20
nColumns=23
inDegrees=yes

Units are S.I. units (second, meters, Newtons, ...)
If the header above contains a line with 'inDegrees', this indicates whether rotational values are in degrees (yes) or radians (no).

endheader
time	pelvis_tilt	pelvis_list	pelvis_rotation	pelvis_tx	pelvis_ty	pelvis_tz	hip_flexion_r	hip_adduction_r	hip_rotation_r	knee_angle_r	knee_angle_r_beta	ankle_angle_r	subtalar_angle_r	mtp_angle_r	hip_flexion_l	hip_adduction_l	hip_rotation_l	knee_angle_l	knee_angle_l_beta	ankle_angle_l	subtalar_angle_l	mtp_angle_l
      7.50000000	     -8.28220960	      2.21160073	      3.53042978	      2.34861236	      1.03821810	      1.04633492	     35.13994540	     -5.08356379	     -0.04600249	     66.47651554	      1.16023407	      8.60688620	    -14.03943868	      0.00000000	     -1.31533505	      4.39070776	     -5.29652769	     24.62653348	      0.42981409	     10.22627301	     -1.48298586	      0.00000000
      7.50666667	     -8.73753955	      1.68247689	      3.45597262	      2.35043160	      1.04213510	      1.04631877	     35.71916804	     -4.54940222	     -0.55302374	     63.85585762	      1.11449496	      8.48629866	    -13.61755861	      0.00000000	     -2.16185531	      3.73964668	     -5.63594490	     23.43531771	      0.40902346	      7.47312536	     -1.35464505	      0.00000000
      7.51333333	     -8.66619990	      1.21841158	      3.32744926	      2.35253859	      1.04675582	      1.04632470	     35.57517648	     -4.01915162	     -1.03316781	     60.99128220	      1.06449869	      8.21930236	    -13.32499833	      0.00000000	     -3.71811647	      3.31417751	     -5.24396817	     21.86780663	      0.38166523	      4.33739372	     -2.51509339	      0.00000000
      7.52000000	     -8.83139513	      0.78056505	      3.14455558	      2.35449710	      1.05079157	      1.04643016	     35.65447239	     -3.52612227	     -1.53648947	     58.06397954	      1.01340762	      7.89385982	    -12.78348972	      0.00000000	     -4.73518181	      2.73831548	     -5.72436668	     20.86605415	      0.36418135	      1.54610009	     -2.36206996	      0.00000000
      7.52666667	     -8.87150453	      0.48321233	      3.05500569	      2.35642604	      1.05478392	      1.04634043	     35.51280642	     -3.23752101	     -2.11255466	     55.03638098	      0.96056606	      7.40027773	    -12.23561112	      0.00000000	     -5.81566096	      2.33983459	     -5.94804272	     19.95383031	      0.34826004	     -1.33772338	     -2.60434155	      0.00000000
      7.53333333	     -9.26609463	      0.34161711	      2.91628962	      2.35816187	      1.05802420	      1.04638301	     35.74541267	     -3.09306222	     -2.62712024	     52.00735877	      0.90769965	      6.83577306	    -11.49175208	      0.00000000	     -6.27240449	      2.04229596	     -6.51393617	     19.52426762	      0.34076275	     -3.97182776	     -2.45040642	      0.00000000
      7.54000000	     -8.96162787	      0.12889868	      2.80378008	      2.36012126	      1.06200135	      1.04636708	     35.05995276	     -2.88928536	     -3.35145270	     48.76459482	      0.85110274	      6.21669853	    -10.57296056	      0.00000000	     -7.55684417	      1.72074120	     -6.64955744	     18.87729479	      0.32947095	     -6.74964186	     -2.97911909	      0.00000000
      7.54666667	     -8.90543980	      0.05112699	      2.72086694	      2.36195410	      1.06528454	      1.04640945	     34.62754788	     -2.81878344	     -4.05257295	     45.57072049	      0.79535911	      5.57605649	     -9.39314726	      0.00000000	     -8.37363122	      1.49023388	     -6.92254210	     18.63155855	      0.32518204	     -9.21763546	     -3.25139277	      0.00000000
      7.55333333	     -8.87200793	      0.01745200	      2.62107899	      2.36368430	      1.06817309	      1.04657984	     34.17975831	     -2.75676031	     -4.76771671	     42.36510841	      0.73941063	      4.91981509	     -8.05743783	      0.00000000	     -9.00412759	      1.25130921	     -7.36870556	     18.71685633	      0.32667077	    -11.36956847	     -3.35038970	      0.00000000
      7.56000000	     -8.86353390	      0.04216812	      2.52018454	      2.36530583	      1.07060274	      1.04677604	     33.74230417	     -2.71439664	     -5.44108467	     39.22262099	      0.68456388	      4.21881455	     -6.57460479	      0.00000000	     -9.47795722	      1.05081152	     -7.84522759	     19.05853755	      0.33263423	    -13.29294724	     -3.43151719	      0.00000000
      7.56666667	     -8.97557353	      0.16177293	      2.37454313	      2.36678706	      1.07243806	      1.04717697	     33.44355095	     -2.65505224	     -5.88827070	     36.18087413	      0.63147538	      3.46613359	     -5.14161586	      0.00000000	     -9.70497809	      0.93864797	     -8.32972508	     19.64153621	      0.34280948	    -14.91312011	     -3.51600060	      0.00000000
      7.57333333	     -8.90974562	      0.17473823	      2.26801535	      2.36825191	      1.07406231	      1.04753064	     32.90000929	     -2.47582446	     -6.38879146	     33.18990803	      0.57927317	      2.81981674	     -3.54698349	      0.00000000	    -10.00581906	      0.68220859	     -8.75359151	     20.47793330	      0.35740736	    -16.17043498	     -3.71770261	      0.00000000
      7.58000000	     -8.44740872	      0.11554734	      2.26519123	      2.36970085	      1.07557746	      1.04782113	     31.98472558	     -2.41496367	     -7.54481233	     30.55851838	      0.53334676	      2.64684083	     -0.66602852	      0.00000000	    -10.62687431	      0.28537373	     -9.08500759	     21.53648664	      0.37588260	    -17.04784045	     -3.71379952	      0.00000000
      7.58666667	     -8.44161852	      0.08206236	      2.16039306	      2.37079544	      1.07612311	      1.04831780	     31.56436699	     -2.06327881	     -7.70888004	     27.96829407	      0.48813882	      1.98025458	      0.63029623	      0.00000000	    -10.58955812	     -0.03921355	     -9.28566603	     22.93851023	      0.40035253	    -17.62258053	     -4.08636455	      0.00000000
      7.59333333	     -8.35521038	     -0.01080036	      2.05412059	      2.37179172	      1.07626829	      1.04883301	     31.07604540	     -1.62507083	     -7.75303546	     25.60496473	      0.44689094	      1.35979038	      1.81383025	      0.00000000	    -10.55000528	     -0.43068136	     -9.40275227	     24.53372604	      0.42819430	    -17.80769909	     -4.42235891	      0.00000000
      7.60000000	     -8.24349328	     -0.16407613	      1.93060221	      2.37262838	      1.07597664	      1.04933697	     30.58786189	     -1.11197881	     -7.68644442	     23.49608247	      0.41008400	      0.76532799	      2.80837749	      0.00000000	    -10.43260758	     -0.86883497	     -9.38039963	     26.34337875	      0.45977870	    -17.59491193	     -4.80602638	      0.00000000
      7.60666667	     -8.05238390	     -0.39856893	      1.86989513	      2.37329321	      1.07528130	      1.04968627	     30.05769713	     -0.55144898	     -7.58425694	     21.70506490	      0.37882485	      0.17418077	      3.43315484	      0.00000000	    -10.27040628	     -1.40264760	     -9.21895903	     28.41008923	      0.49584960	    -17.08074298	     -5.10831609	      0.00000000
      7.61333333	     -7.82069540	     -0.75758251	      1.74774225	      2.37385227	      1.07419010	      1.05010319	     29.41075513	      0.29108355	     -6.78076383	     19.95372110	      0.34825813	     -0.71030734	      2.58536757	      0.00000000	    -10.04123919	     -2.12051960	     -9.26201740	     30.72616272	      0.53627271	    -16.08837881	     -4.92367853	      0.00000000
      7.62000000	     -7.62883448	     -0.98905962	      1.67702028	      2.37420006	      1.07257808	      1.05032271	     29.02303598	      0.77128495	     -6.72034651	     18.93702292	      0.33051340	     -1.17985828	      2.89475936	      0.00000000	     -9.69958153	     -2.52002607	     -8.60323993	     33.09387076	      0.57759701	    -15.15037000	     -5.67350968	      0.00000000
      7.62666667	     -7.34705546	     -1.21506898	      1.53627312	      2.37441551	      1.07059231	      1.05056262	     28.64655582	      1.23950654	     -6.65997443	     18.39233965	      0.32100688	     -1.52132457	      3.06732659	      0.00000000	     -9.37210124	     -2.88219274	     -7.96636385	     35.61377292	      0.62157760	    -14.02596559	     -6.37651671	      0.00000000
